<mxfile host="app.diagrams.net" modified="2023-07-06T12:49:07.614Z" agent="Mozilla/5.0 (Macintosh; Intel Mac OS X 10_15_7) AppleWebKit/605.1.15 (KHTML, like Gecko) Version/16.1 Safari/605.1.15" etag="pxnqz09tn_2GL31CuXak" version="21.5.2" type="github">
  <diagram name="第 1 页" id="uia8wNY7s1_N1R59qs4D">
    <mxGraphModel dx="954" dy="647" grid="1" gridSize="10" guides="1" tooltips="1" connect="1" arrows="1" fold="1" page="1" pageScale="1" pageWidth="827" pageHeight="1169" math="0" shadow="0">
      <root>
        <mxCell id="0" />
        <mxCell id="1" parent="0" />
        <mxCell id="rR-A89TzykGErSvJLE2y-1" value="" style="shape=table;startSize=0;container=1;collapsible=0;childLayout=tableLayout;" vertex="1" parent="1">
          <mxGeometry x="180" y="100" width="570" height="415" as="geometry" />
        </mxCell>
        <mxCell id="rR-A89TzykGErSvJLE2y-2" value="" style="shape=tableRow;horizontal=0;startSize=0;swimlaneHead=0;swimlaneBody=0;strokeColor=inherit;top=0;left=0;bottom=0;right=0;collapsible=0;dropTarget=0;fillColor=none;points=[[0,0.5],[1,0.5]];portConstraint=eastwest;" vertex="1" parent="rR-A89TzykGErSvJLE2y-1">
          <mxGeometry width="570" height="45" as="geometry" />
        </mxCell>
        <mxCell id="rR-A89TzykGErSvJLE2y-3" value="字段名" style="shape=partialRectangle;html=1;whiteSpace=wrap;connectable=0;strokeColor=inherit;overflow=hidden;fillColor=none;top=0;left=0;bottom=0;right=0;pointerEvents=1;" vertex="1" parent="rR-A89TzykGErSvJLE2y-2">
          <mxGeometry width="60" height="45" as="geometry">
            <mxRectangle width="60" height="45" as="alternateBounds" />
          </mxGeometry>
        </mxCell>
        <mxCell id="rR-A89TzykGErSvJLE2y-4" value="描述" style="shape=partialRectangle;html=1;whiteSpace=wrap;connectable=0;strokeColor=inherit;overflow=hidden;fillColor=none;top=0;left=0;bottom=0;right=0;pointerEvents=1;" vertex="1" parent="rR-A89TzykGErSvJLE2y-2">
          <mxGeometry x="60" width="510" height="45" as="geometry">
            <mxRectangle width="510" height="45" as="alternateBounds" />
          </mxGeometry>
        </mxCell>
        <mxCell id="rR-A89TzykGErSvJLE2y-5" value="" style="shape=tableRow;horizontal=0;startSize=0;swimlaneHead=0;swimlaneBody=0;strokeColor=inherit;top=0;left=0;bottom=0;right=0;collapsible=0;dropTarget=0;fillColor=none;points=[[0,0.5],[1,0.5]];portConstraint=eastwest;" vertex="1" parent="rR-A89TzykGErSvJLE2y-1">
          <mxGeometry y="45" width="570" height="44" as="geometry" />
        </mxCell>
        <mxCell id="rR-A89TzykGErSvJLE2y-6" value="Base" style="shape=partialRectangle;html=1;whiteSpace=wrap;connectable=0;strokeColor=inherit;overflow=hidden;fillColor=none;top=0;left=0;bottom=0;right=0;pointerEvents=1;" vertex="1" parent="rR-A89TzykGErSvJLE2y-5">
          <mxGeometry width="60" height="44" as="geometry">
            <mxRectangle width="60" height="44" as="alternateBounds" />
          </mxGeometry>
        </mxCell>
        <mxCell id="rR-A89TzykGErSvJLE2y-7" value="包含段的首字节的线性地址" style="shape=partialRectangle;html=1;whiteSpace=wrap;connectable=0;strokeColor=inherit;overflow=hidden;fillColor=none;top=0;left=0;bottom=0;right=0;pointerEvents=1;" vertex="1" parent="rR-A89TzykGErSvJLE2y-5">
          <mxGeometry x="60" width="510" height="44" as="geometry">
            <mxRectangle width="510" height="44" as="alternateBounds" />
          </mxGeometry>
        </mxCell>
        <mxCell id="rR-A89TzykGErSvJLE2y-8" value="" style="shape=tableRow;horizontal=0;startSize=0;swimlaneHead=0;swimlaneBody=0;strokeColor=inherit;top=0;left=0;bottom=0;right=0;collapsible=0;dropTarget=0;fillColor=none;points=[[0,0.5],[1,0.5]];portConstraint=eastwest;" vertex="1" parent="rR-A89TzykGErSvJLE2y-1">
          <mxGeometry y="89" width="570" height="41" as="geometry" />
        </mxCell>
        <mxCell id="rR-A89TzykGErSvJLE2y-9" value="G" style="shape=partialRectangle;html=1;whiteSpace=wrap;connectable=0;strokeColor=inherit;overflow=hidden;fillColor=none;top=0;left=0;bottom=0;right=0;pointerEvents=1;" vertex="1" parent="rR-A89TzykGErSvJLE2y-8">
          <mxGeometry width="60" height="41" as="geometry">
            <mxRectangle width="60" height="41" as="alternateBounds" />
          </mxGeometry>
        </mxCell>
        <mxCell id="rR-A89TzykGErSvJLE2y-10" value="粒度标志，如果该位清0，则段大小以字节为单位，否则以4096字节（4KB）的倍数计" style="shape=partialRectangle;html=1;whiteSpace=wrap;connectable=0;strokeColor=inherit;overflow=hidden;fillColor=none;top=0;left=0;bottom=0;right=0;pointerEvents=1;" vertex="1" parent="rR-A89TzykGErSvJLE2y-8">
          <mxGeometry x="60" width="510" height="41" as="geometry">
            <mxRectangle width="510" height="41" as="alternateBounds" />
          </mxGeometry>
        </mxCell>
        <mxCell id="rR-A89TzykGErSvJLE2y-11" value="" style="shape=tableRow;horizontal=0;startSize=0;swimlaneHead=0;swimlaneBody=0;strokeColor=inherit;top=0;left=0;bottom=0;right=0;collapsible=0;dropTarget=0;fillColor=none;points=[[0,0.5],[1,0.5]];portConstraint=eastwest;" vertex="1" parent="rR-A89TzykGErSvJLE2y-1">
          <mxGeometry y="130" width="570" height="44" as="geometry" />
        </mxCell>
        <mxCell id="rR-A89TzykGErSvJLE2y-12" value="Limit" style="shape=partialRectangle;html=1;whiteSpace=wrap;connectable=0;strokeColor=inherit;overflow=hidden;fillColor=none;top=0;left=0;bottom=0;right=0;pointerEvents=1;" vertex="1" parent="rR-A89TzykGErSvJLE2y-11">
          <mxGeometry width="60" height="44" as="geometry">
            <mxRectangle width="60" height="44" as="alternateBounds" />
          </mxGeometry>
        </mxCell>
        <mxCell id="rR-A89TzykGErSvJLE2y-13" value="&lt;span style=&quot;caret-color: rgb(240, 240, 240); color: rgb(240, 240, 240); font-family: Helvetica; font-size: 12px; font-style: normal; font-variant-caps: normal; font-weight: 400; letter-spacing: normal; text-align: center; text-indent: 0px; text-transform: none; word-spacing: 0px; -webkit-text-stroke-width: 0px; background-color: rgb(42, 37, 47); text-decoration: none; float: none; display: inline !important;&quot;&gt;存放段中最后一个内存单元的偏移量，从而决定段的长度&lt;/span&gt;" style="shape=partialRectangle;html=1;whiteSpace=wrap;connectable=0;strokeColor=inherit;overflow=hidden;fillColor=none;top=0;left=0;bottom=0;right=0;pointerEvents=1;" vertex="1" parent="rR-A89TzykGErSvJLE2y-11">
          <mxGeometry x="60" width="510" height="44" as="geometry">
            <mxRectangle width="510" height="44" as="alternateBounds" />
          </mxGeometry>
        </mxCell>
        <mxCell id="rR-A89TzykGErSvJLE2y-14" value="" style="shape=tableRow;horizontal=0;startSize=0;swimlaneHead=0;swimlaneBody=0;strokeColor=inherit;top=0;left=0;bottom=0;right=0;collapsible=0;dropTarget=0;fillColor=none;points=[[0,0.5],[1,0.5]];portConstraint=eastwest;" vertex="1" parent="rR-A89TzykGErSvJLE2y-1">
          <mxGeometry y="174" width="570" height="36" as="geometry" />
        </mxCell>
        <mxCell id="rR-A89TzykGErSvJLE2y-15" value="S" style="shape=partialRectangle;html=1;whiteSpace=wrap;connectable=0;strokeColor=inherit;overflow=hidden;fillColor=none;top=0;left=0;bottom=0;right=0;pointerEvents=1;" vertex="1" parent="rR-A89TzykGErSvJLE2y-14">
          <mxGeometry width="60" height="36" as="geometry">
            <mxRectangle width="60" height="36" as="alternateBounds" />
          </mxGeometry>
        </mxCell>
        <mxCell id="rR-A89TzykGErSvJLE2y-16" value="系统标志，如果清0，则是一个系统段，存储诸如LDT这种关键的数据结构，否则它是一个普通的代码段或数据段" style="shape=partialRectangle;html=1;whiteSpace=wrap;connectable=0;strokeColor=inherit;overflow=hidden;fillColor=none;top=0;left=0;bottom=0;right=0;pointerEvents=1;" vertex="1" parent="rR-A89TzykGErSvJLE2y-14">
          <mxGeometry x="60" width="510" height="36" as="geometry">
            <mxRectangle width="510" height="36" as="alternateBounds" />
          </mxGeometry>
        </mxCell>
        <mxCell id="rR-A89TzykGErSvJLE2y-17" value="" style="shape=tableRow;horizontal=0;startSize=0;swimlaneHead=0;swimlaneBody=0;strokeColor=inherit;top=0;left=0;bottom=0;right=0;collapsible=0;dropTarget=0;fillColor=none;points=[[0,0.5],[1,0.5]];portConstraint=eastwest;" vertex="1" parent="rR-A89TzykGErSvJLE2y-1">
          <mxGeometry y="210" width="570" height="22" as="geometry" />
        </mxCell>
        <mxCell id="rR-A89TzykGErSvJLE2y-18" value="Type" style="shape=partialRectangle;html=1;whiteSpace=wrap;connectable=0;strokeColor=inherit;overflow=hidden;fillColor=none;top=0;left=0;bottom=0;right=0;pointerEvents=1;" vertex="1" parent="rR-A89TzykGErSvJLE2y-17">
          <mxGeometry width="60" height="22" as="geometry">
            <mxRectangle width="60" height="22" as="alternateBounds" />
          </mxGeometry>
        </mxCell>
        <mxCell id="rR-A89TzykGErSvJLE2y-19" value="描述了段的类型特征和它的存取权限" style="shape=partialRectangle;html=1;whiteSpace=wrap;connectable=0;strokeColor=inherit;overflow=hidden;fillColor=none;top=0;left=0;bottom=0;right=0;pointerEvents=1;" vertex="1" parent="rR-A89TzykGErSvJLE2y-17">
          <mxGeometry x="60" width="510" height="22" as="geometry">
            <mxRectangle width="510" height="22" as="alternateBounds" />
          </mxGeometry>
        </mxCell>
        <mxCell id="rR-A89TzykGErSvJLE2y-20" value="" style="shape=tableRow;horizontal=0;startSize=0;swimlaneHead=0;swimlaneBody=0;strokeColor=inherit;top=0;left=0;bottom=0;right=0;collapsible=0;dropTarget=0;fillColor=none;points=[[0,0.5],[1,0.5]];portConstraint=eastwest;" vertex="1" parent="rR-A89TzykGErSvJLE2y-1">
          <mxGeometry y="232" width="570" height="45" as="geometry" />
        </mxCell>
        <mxCell id="rR-A89TzykGErSvJLE2y-21" value="DPL" style="shape=partialRectangle;html=1;whiteSpace=wrap;connectable=0;strokeColor=inherit;overflow=hidden;fillColor=none;top=0;left=0;bottom=0;right=0;pointerEvents=1;" vertex="1" parent="rR-A89TzykGErSvJLE2y-20">
          <mxGeometry width="60" height="45" as="geometry">
            <mxRectangle width="60" height="45" as="alternateBounds" />
          </mxGeometry>
        </mxCell>
        <mxCell id="rR-A89TzykGErSvJLE2y-22" value="描述符特权级 (Descriptor Privilese Level） 字段，用于限制对这个段的存取。它表示为访问这个段而要求的CPU 最小的优先级。因此，DPL设为0&#xa;的段只能当 CPL 为0时（即在内核态）才是可访向的，而DPL设为3的段对任何CPL值都可以访问" style="shape=partialRectangle;html=1;whiteSpace=wrap;connectable=0;strokeColor=inherit;overflow=hidden;fillColor=none;top=0;left=0;bottom=0;right=0;pointerEvents=1;" vertex="1" parent="rR-A89TzykGErSvJLE2y-20">
          <mxGeometry x="60" width="510" height="45" as="geometry">
            <mxRectangle width="510" height="45" as="alternateBounds" />
          </mxGeometry>
        </mxCell>
        <mxCell id="rR-A89TzykGErSvJLE2y-23" value="" style="shape=tableRow;horizontal=0;startSize=0;swimlaneHead=0;swimlaneBody=0;strokeColor=inherit;top=0;left=0;bottom=0;right=0;collapsible=0;dropTarget=0;fillColor=none;points=[[0,0.5],[1,0.5]];portConstraint=eastwest;" vertex="1" parent="rR-A89TzykGErSvJLE2y-1">
          <mxGeometry y="277" width="570" height="45" as="geometry" />
        </mxCell>
        <mxCell id="rR-A89TzykGErSvJLE2y-24" value="P" style="shape=partialRectangle;html=1;whiteSpace=wrap;connectable=0;strokeColor=inherit;overflow=hidden;fillColor=none;top=0;left=0;bottom=0;right=0;pointerEvents=1;" vertex="1" parent="rR-A89TzykGErSvJLE2y-23">
          <mxGeometry width="60" height="45" as="geometry">
            <mxRectangle width="60" height="45" as="alternateBounds" />
          </mxGeometry>
        </mxCell>
        <mxCell id="rR-A89TzykGErSvJLE2y-25" value="Segment- Present标志，等于0时表示段当前不在主存中。Linux总是把这个标志（第47位）设为1，因为它从来不把整个段交换到磁盘上去" style="shape=partialRectangle;html=1;whiteSpace=wrap;connectable=0;strokeColor=inherit;overflow=hidden;fillColor=none;top=0;left=0;bottom=0;right=0;pointerEvents=1;" vertex="1" parent="rR-A89TzykGErSvJLE2y-23">
          <mxGeometry x="60" width="510" height="45" as="geometry">
            <mxRectangle width="510" height="45" as="alternateBounds" />
          </mxGeometry>
        </mxCell>
        <mxCell id="rR-A89TzykGErSvJLE2y-26" value="" style="shape=tableRow;horizontal=0;startSize=0;swimlaneHead=0;swimlaneBody=0;strokeColor=inherit;top=0;left=0;bottom=0;right=0;collapsible=0;dropTarget=0;fillColor=none;points=[[0,0.5],[1,0.5]];portConstraint=eastwest;" vertex="1" parent="rR-A89TzykGErSvJLE2y-1">
          <mxGeometry y="322" width="570" height="48" as="geometry" />
        </mxCell>
        <mxCell id="rR-A89TzykGErSvJLE2y-27" value="D或B" style="shape=partialRectangle;html=1;whiteSpace=wrap;connectable=0;strokeColor=inherit;overflow=hidden;fillColor=none;top=0;left=0;bottom=0;right=0;pointerEvents=1;" vertex="1" parent="rR-A89TzykGErSvJLE2y-26">
          <mxGeometry width="60" height="48" as="geometry">
            <mxRectangle width="60" height="48" as="alternateBounds" />
          </mxGeometry>
        </mxCell>
        <mxCell id="rR-A89TzykGErSvJLE2y-28" value="称为D或B的标志，取决于是代码段还是数据段。D或B的含义在两种情况下稍微有所区别，但是如果段偏移量的地址是32位长，就基本上把它置为1，如果这个偏移量是 16位长，它被清0" style="shape=partialRectangle;html=1;whiteSpace=wrap;connectable=0;strokeColor=inherit;overflow=hidden;fillColor=none;top=0;left=0;bottom=0;right=0;pointerEvents=1;" vertex="1" parent="rR-A89TzykGErSvJLE2y-26">
          <mxGeometry x="60" width="510" height="48" as="geometry">
            <mxRectangle width="510" height="48" as="alternateBounds" />
          </mxGeometry>
        </mxCell>
        <mxCell id="rR-A89TzykGErSvJLE2y-30" style="shape=tableRow;horizontal=0;startSize=0;swimlaneHead=0;swimlaneBody=0;strokeColor=inherit;top=0;left=0;bottom=0;right=0;collapsible=0;dropTarget=0;fillColor=none;points=[[0,0.5],[1,0.5]];portConstraint=eastwest;" vertex="1" parent="rR-A89TzykGErSvJLE2y-1">
          <mxGeometry y="370" width="570" height="45" as="geometry" />
        </mxCell>
        <mxCell id="rR-A89TzykGErSvJLE2y-31" value="AVL标志" style="shape=partialRectangle;html=1;whiteSpace=wrap;connectable=0;strokeColor=inherit;overflow=hidden;fillColor=none;top=0;left=0;bottom=0;right=0;pointerEvents=1;" vertex="1" parent="rR-A89TzykGErSvJLE2y-30">
          <mxGeometry width="60" height="45" as="geometry">
            <mxRectangle width="60" height="45" as="alternateBounds" />
          </mxGeometry>
        </mxCell>
        <mxCell id="rR-A89TzykGErSvJLE2y-32" value="可以由操作系统使用，但是被Linux 忽略" style="shape=partialRectangle;html=1;whiteSpace=wrap;connectable=0;strokeColor=inherit;overflow=hidden;fillColor=none;top=0;left=0;bottom=0;right=0;pointerEvents=1;" vertex="1" parent="rR-A89TzykGErSvJLE2y-30">
          <mxGeometry x="60" width="510" height="45" as="geometry">
            <mxRectangle width="510" height="45" as="alternateBounds" />
          </mxGeometry>
        </mxCell>
      </root>
    </mxGraphModel>
  </diagram>
</mxfile>
